<?xml version="1.0" encoding="UTF-8" standalone="no"?>
<svg
   xmlns:osb="http://www.openswatchbook.org/uri/2009/osb"
   xmlns:dc="http://purl.org/dc/elements/1.1/"
   xmlns:cc="http://creativecommons.org/ns#"
   xmlns:rdf="http://www.w3.org/1999/02/22-rdf-syntax-ns#"
   xmlns:svg="http://www.w3.org/2000/svg"
   xmlns="http://www.w3.org/2000/svg"
   xmlns:xlink="http://www.w3.org/1999/xlink"
   xmlns:sodipodi="http://sodipodi.sourceforge.net/DTD/sodipodi-0.dtd"
   xmlns:inkscape="http://www.inkscape.org/namespaces/inkscape"
   id="svg8"
   version="1.1"
   viewBox="0 0 170 170"
   height="170mm"
   width="170mm"
   sodipodi:docname="FingerPerc_Top_AtRest.svg"
   inkscape:version="1.0.1 (c497b03c, 2020-09-10)"
   inkscape:export-filename="/Users/philcarlson/AndroidStudioProjects/FingerPerc/FingerPerc_Top_AtRest.png"
   inkscape:export-xdpi="300"
   inkscape:export-ydpi="300">
  <defs
     id="defs2">
    <linearGradient
       inkscape:collect="always"
       id="linearGradient2372">
      <stop
         style="stop-color:#3e3e3e;stop-opacity:1"
         offset="0"
         id="stop2368" />
      <stop
         style="stop-color:#ffffff;stop-opacity:0;"
         offset="1"
         id="stop2370" />
    </linearGradient>
    <linearGradient
       id="linearGradient2413"
       osb:paint="gradient">
      <stop
         style="stop-color:#ffffff;stop-opacity:1;"
         offset="0"
         id="stop2409" />
      <stop
         style="stop-color:#ffffff;stop-opacity:0;"
         offset="1"
         id="stop2411" />
    </linearGradient>
    <linearGradient
       inkscape:collect="always"
       xlink:href="#linearGradient2372"
       id="linearGradient2788"
       gradientUnits="userSpaceOnUse"
       x1="79.444603"
       y1="132.23201"
       x2="79.124268"
       y2="152.73384" />
    <filter
       inkscape:collect="always"
       style="color-interpolation-filters:sRGB"
       id="filter2186"
       x="-0.014336615"
       width="1.0286732"
       y="-0.018304113"
       height="1.0366082">
      <feGaussianBlur
         inkscape:collect="always"
         stdDeviation="0.90625163"
         id="feGaussianBlur2188" />
    </filter>
    <filter
       inkscape:collect="always"
       style="color-interpolation-filters:sRGB"
       id="filter2282"
       x="-0.0093469062"
       width="1.0186938"
       y="-3.6499975"
       height="8.299995">
      <feGaussianBlur
         inkscape:collect="always"
         stdDeviation="0.86243358"
         id="feGaussianBlur2284" />
    </filter>
    <filter
       inkscape:collect="always"
       style="color-interpolation-filters:sRGB"
       id="filter2298"
       x="-0.011104941"
       width="1.0222099"
       y="-0.0463274"
       height="1.0926548">
      <feGaussianBlur
         inkscape:collect="always"
         stdDeviation="0.70308856"
         id="feGaussianBlur2300" />
    </filter>
    <filter
       inkscape:collect="always"
       style="color-interpolation-filters:sRGB"
       id="filter2358"
       x="-0.009344908"
       width="1.0186898"
       y="-0.057557756"
       height="1.1151155">
      <feGaussianBlur
         inkscape:collect="always"
         stdDeviation="0.26068867"
         id="feGaussianBlur2360" />
    </filter>
  </defs>
  <sodipodi:namedview
     id="base"
     pagecolor="#000000"
     bordercolor="#666666"
     borderopacity="1.0"
     inkscape:pageopacity="0"
     inkscape:pageshadow="2"
     inkscape:zoom="0.49448115"
     inkscape:cx="258.00682"
     inkscape:cy="325.15679"
     inkscape:document-units="mm"
     inkscape:current-layer="layer1"
     inkscape:document-rotation="0"
     showgrid="false"
     inkscape:window-width="1280"
     inkscape:window-height="755"
     inkscape:window-x="0"
     inkscape:window-y="23"
     inkscape:window-maximized="1"
     inkscape:snap-page="true" />
  <metadata
     id="metadata5">
    <rdf:RDF>
      <cc:Work
         rdf:about="">
        <dc:format>image/svg+xml</dc:format>
        <dc:type
           rdf:resource="http://purl.org/dc/dcmitype/StillImage" />
        <dc:title />
      </cc:Work>
    </rdf:RDF>
  </metadata>
  <g
     inkscape:label="Layer 1"
     inkscape:groupmode="layer"
     id="layer1">
    <path
       style="fill:none;stroke:#ffffff;stroke-width:0.5;stroke-linecap:butt;stroke-linejoin:miter;stroke-miterlimit:4;stroke-dasharray:none;stroke-opacity:1;filter:url(#filter2298)"
       d="M 54.588447,163.698 8.5469012,127.49933 160.49841,127.27436 111.61247,163.67159 Z"
       id="path2594"
       sodipodi:nodetypes="ccccc" />
    <path
       style="fill:none;stroke:#ffffff;stroke-width:0.9;stroke-linecap:butt;stroke-linejoin:miter;stroke-miterlimit:4;stroke-dasharray:none;stroke-opacity:1;filter:url(#filter2186)"
       d="M 8.6677941,127.47414 8.7128307,8.8211445 160.04499,8.6481749 160.37752,127.14839"
       id="path2685"
       sodipodi:nodetypes="cccc" />
    <g
       aria-label="FingerPerc"
       id="text2691"
       style="font-style:normal;font-weight:normal;font-size:10.58329999999999949px;line-height:1.25;font-family:sans-serif;fill:url(#linearGradient2788);fill-opacity:1;stroke:#4f4f4f;stroke-width:0.265;stroke-miterlimit:4;stroke-dasharray:none;stroke-opacity:1;filter:url(#filter2358)"
       transform="translate(0,4.2333335)">
      <path
         d="m 54.5476,138.483 h -4.8137 l 2.2185,2.803 h 3.8447 l 0.7291,1.06 h -3.7344 l 2.974,3.757 h -1.0233 l -7.3487,-8.924 h 6.2788 z"
         style="stroke:#4f4f4f;stroke-width:0.265;stroke-miterlimit:4;stroke-dasharray:none;stroke-opacity:1;fill:url(#linearGradient2788);fill-opacity:1.0"
         id="path2693" />
      <path
         d="m 57.2203,138.548 h -1.353 l -0.9232,-1.446 h 1.4023 z m 4.5044,7.555 H 60.753 l -3.9852,-6.261 h 1.1608 z"
         style="stroke:#4f4f4f;stroke-width:0.265;stroke-miterlimit:4;stroke-dasharray:none;stroke-opacity:1;fill:url(#linearGradient2788);fill-opacity:1.0"
         id="path2695" />
      <path
         d="M 68.4846,146.103 H 67.513 l -1.4023,-3.289 c -0.1258,-0.295 -0.2627,-0.575 -0.4107,-0.84 -0.152,-0.273 -0.3094,-0.489 -0.4716,-0.645 -0.1748,-0.174 -0.3748,-0.303 -0.5997,-0.387 -0.2278,-0.089 -0.4926,-0.134 -0.7935,-0.134 -0.309,0 -0.5933,0.081 -0.8513,0.241 -0.2558,0.158 -0.4737,0.358 -0.6535,0.599 l 2.2988,4.455 h -0.9717 l -3.4197,-6.261 h 1.1607 l 0.4194,0.813 c 0.1951,-0.315 0.4408,-0.564 0.7369,-0.746 0.2988,-0.183 0.6542,-0.275 1.0639,-0.275 0.7491,0 1.4233,0.244 2.0112,0.724 0.5735,0.467 1.023,1.121 1.3479,1.941 z"
         style="stroke:#4f4f4f;stroke-width:0.265;stroke-miterlimit:4;stroke-dasharray:none;stroke-opacity:1;fill:url(#linearGradient2788);fill-opacity:1.0"
         id="path2697" />
      <path
         d="m 74.921,145.496 c 0.1726,0.897 0.0774,1.524 -0.2717,1.912 -0.3406,0.378 -0.9427,0.564 -1.8124,0.564 -0.2888,0 -0.5765,-0.018 -0.8635,-0.054 -0.2836,-0.034 -0.5695,-0.083 -0.8582,-0.147 l -0.2758,-0.832 h 0.0504 c 0.1717,0.053 0.4368,0.118 0.7945,0.195 0.3569,0.079 0.7008,0.118 1.033,0.118 0.3189,0 0.5745,-0.034 0.7673,-0.101 0.1937,-0.067 0.335,-0.162 0.4239,-0.283 0.091,-0.117 0.1433,-0.259 0.1564,-0.426 0.0133,-0.17 -0.0036,-0.361 -0.0513,-0.575 l -0.1097,-0.493 c -0.2483,0.22 -0.4942,0.384 -0.7389,0.493 -0.2404,0.104 -0.5673,0.156 -0.9818,0.156 -0.6908,0 -1.3126,-0.228 -1.8775,-0.694 -0.5788,-0.482 -1.0347,-1.186 -1.3681,-2.137 -0.1905,-0.544 -0.2821,-1.026 -0.27,-1.441 0.015,-0.428 0.1088,-0.805 0.2834,-1.128 0.1643,-0.307 0.4106,-0.548 0.7391,-0.721 0.3302,-0.178 0.6868,-0.268 1.0676,-0.268 0.4014,0 0.748,0.045 1.0387,0.134 0.2924,0.085 0.6086,0.217 0.9472,0.393 l 0.0032,-0.319 h 1.0866 z m -1.1904,-0.901 -0.7685,-3.452 c -0.331,-0.143 -0.6345,-0.244 -0.9092,-0.303 -0.2727,-0.063 -0.5379,-0.095 -0.7952,-0.095 -0.623,0 -1.0484,0.22 -1.2722,0.652 -0.2187,0.423 -0.202,1.019 0.0384,1.772 0.2191,0.687 0.4994,1.19 0.8421,1.523 0.3361,0.328 0.7728,0.489 1.3151,0.489 0.2906,0 0.5681,-0.051 0.8337,-0.155 0.27,-0.107 0.5085,-0.25 0.7158,-0.431 z"
         style="stroke:#4f4f4f;stroke-width:0.265;stroke-miterlimit:4;stroke-dasharray:none;stroke-opacity:1;fill:url(#linearGradient2788);fill-opacity:1.0"
         id="path2699" />
      <path
         d="m 81.8299,143.358 h -4.6164 c 0.0431,0.376 0.1369,0.697 0.2802,0.968 0.1407,0.262 0.3158,0.475 0.5252,0.64 0.2001,0.16 0.4284,0.28 0.6856,0.358 0.2595,0.079 0.5399,0.118 0.8423,0.118 0.4009,0 0.8015,-0.073 1.2047,-0.221 0.4103,-0.153 0.7048,-0.303 0.8816,-0.452 h 0.0539 l -0.014,1.012 c -0.331,0.127 -0.6666,0.232 -1.0071,0.317 -0.3388,0.084 -0.6946,0.126 -1.0688,0.126 -0.9542,0 -1.7233,-0.234 -2.3205,-0.714 -0.6157,-0.497 -1,-1.228 -1.1449,-2.224 -0.152,-1.044 0.0152,-1.918 0.522,-2.593 0.5299,-0.7 1.3071,-1.059 2.3169,-1.059 0.9354,0 1.66,0.295 2.1625,0.873 0.4915,0.56 0.7232,1.329 0.7067,2.278 z m -1.0363,-0.814 c -0.0108,-0.58 -0.1641,-1.042 -0.4637,-1.376 -0.301,-0.341 -0.7558,-0.513 -1.3601,-0.513 -0.6084,0 -1.0771,0.189 -1.401,0.562 -0.3137,0.366 -0.4617,0.81 -0.4489,1.327 z"
         style="stroke:#4f4f4f;stroke-width:0.265;stroke-miterlimit:4;stroke-dasharray:none;stroke-opacity:1;fill:url(#linearGradient2788);fill-opacity:1.0"
         id="path2701" />
      <path
         d="m 87.7218,141.168 h -0.0596 c -0.1599,-0.042 -0.3182,-0.071 -0.4748,-0.088 -0.1521,-0.021 -0.3358,-0.031 -0.5511,-0.031 -0.3469,0 -0.6921,0.081 -1.0336,0.243 -0.338,0.156 -0.666,0.358 -0.9832,0.604 l -0.3928,4.207 h -0.9716 l 0.3954,-6.261 h 1.1608 l -0.1003,1.074 c 0.4885,-0.383 0.9186,-0.659 1.285,-0.821 0.3742,-0.168 0.7457,-0.253 1.1121,-0.253 0.2017,0 0.3467,0.007 0.4351,0.02 0.089,0.009 0.2213,0.029 0.3967,0.06 z"
         style="stroke:#4f4f4f;stroke-width:0.265;stroke-miterlimit:4;stroke-dasharray:none;stroke-opacity:1;fill:url(#linearGradient2788);fill-opacity:1.0"
         id="path2703" />
      <path
         d="m 94.9785,140.358 c -0.1543,0.425 -0.3642,0.812 -0.6284,1.162 -0.254,0.34 -0.5423,0.63 -0.8652,0.873 -0.395,0.297 -0.8133,0.518 -1.2568,0.664 -0.4388,0.142 -0.9568,0.213 -1.5566,0.213 H 89.558 l -0.6747,2.833 H 87.86 l 1.8414,-8.924 h 2.6673 c 0.5898,0 1.072,0.058 1.4448,0.175 0.3723,0.111 0.6756,0.287 0.9094,0.525 0.2719,0.279 0.4333,0.621 0.4864,1.024 0.0561,0.394 -0.0227,0.881 -0.2308,1.455 z m -1.2655,0.032 c 0.1111,-0.337 0.1537,-0.635 0.1261,-0.892 -0.0281,-0.261 -0.131,-0.476 -0.3096,-0.645 -0.1578,-0.146 -0.3595,-0.25 -0.6046,-0.312 -0.2404,-0.067 -0.5614,-0.101 -0.9624,-0.101 h -1.2543 l -0.9204,3.865 h 0.965 c 0.4622,0 0.8497,-0.041 1.1634,-0.123 0.3163,-0.087 0.5953,-0.224 0.8376,-0.413 0.2461,-0.194 0.4429,-0.401 0.5897,-0.62 0.1525,-0.222 0.2758,-0.475 0.3695,-0.759 z"
         style="stroke:#4f4f4f;stroke-width:0.265;stroke-miterlimit:4;stroke-dasharray:none;stroke-opacity:1;fill:url(#linearGradient2788);fill-opacity:1.0"
         id="path2705" />
      <path
         d="m 100.52,143.358 h -4.6166 c -0.1579,0.376 -0.2363,0.697 -0.2377,0.968 0,0.262 0.0611,0.475 0.1821,0.64 0.1143,0.16 0.2789,0.28 0.4938,0.358 0.2174,0.079 0.4769,0.118 0.7793,0.118 0.4009,0 0.8409,-0.073 1.3232,-0.221 0.4921,-0.153 0.8672,-0.303 1.1236,-0.452 h 0.0538 l -0.5557,1.012 c -0.3991,0.127 -0.7912,0.232 -1.1771,0.317 -0.384,0.084 -0.7622,0.126 -1.1364,0.126 -0.9542,0 -1.5978,-0.234 -1.9382,-0.714 -0.3494,-0.497 -0.3421,-1.228 0.046,-2.224 0.407,-1.044 1.0422,-1.918 1.9105,-2.593 0.9046,-0.7 1.8746,-1.059 2.8844,-1.059 0.935,0 1.502,0.295 1.695,0.873 0.191,0.56 0.012,1.329 -0.513,2.278 z m -0.6005,-0.814 c 0.2995,-0.58 0.3945,-1.042 0.2735,-1.376 -0.119,-0.341 -0.4814,-0.513 -1.0858,-0.513 -0.6084,0 -1.1784,0.189 -1.7022,0.562 -0.5095,0.366 -0.8953,0.81 -1.1591,1.327 z"
         style="stroke:#4f4f4f;stroke-width:0.265;stroke-miterlimit:4;stroke-dasharray:none;stroke-opacity:1;fill:url(#linearGradient2788);fill-opacity:1.0"
         id="path2707" />
      <path
         d="m 107.585,141.168 h -0.06 c -0.137,-0.042 -0.28,-0.071 -0.428,-0.088 -0.141,-0.021 -0.319,-0.031 -0.534,-0.031 -0.347,0 -0.736,0.081 -1.164,0.243 -0.422,0.156 -0.858,0.358 -1.306,0.604 l -2.646,4.207 h -0.972 l 3.748,-6.261 h 1.161 l -0.675,1.074 c 0.693,-0.383 1.271,-0.659 1.724,-0.821 0.465,-0.168 0.881,-0.253 1.248,-0.253 0.201,0 0.343,0.007 0.424,0.02 0.084,0.009 0.206,0.029 0.365,0.06 z"
         style="stroke:#4f4f4f;stroke-width:0.265;stroke-miterlimit:4;stroke-dasharray:none;stroke-opacity:1;fill:url(#linearGradient2788);fill-opacity:1.0"
         id="path2709" />
      <path
         d="m 109.561,145.771 c -0.451,0.143 -0.855,0.253 -1.214,0.332 -0.355,0.078 -0.695,0.117 -1.021,0.117 -0.415,0 -0.753,-0.055 -1.015,-0.164 -0.262,-0.113 -0.431,-0.285 -0.508,-0.516 -0.081,-0.235 -0.058,-0.537 0.072,-0.909 0.133,-0.381 0.391,-0.836 0.781,-1.372 0.759,-1.046 1.685,-1.911 2.769,-2.566 1.128,-0.677 2.218,-1.026 3.239,-1.026 0.397,0 0.735,0.061 1.012,0.182 0.281,0.12 0.503,0.266 0.669,0.437 l -1.151,1.32 h -0.059 c -0.101,-0.275 -0.272,-0.488 -0.511,-0.639 -0.237,-0.152 -0.531,-0.229 -0.881,-0.229 -0.643,0 -1.33,0.229 -2.049,0.678 -0.694,0.434 -1.344,1.055 -1.941,1.843 -0.556,0.732 -0.805,1.276 -0.766,1.647 0.044,0.359 0.354,0.536 0.93,0.536 0.201,0 0.425,-0.024 0.673,-0.073 0.25,-0.049 0.491,-0.114 0.724,-0.193 0.205,-0.07 0.405,-0.143 0.599,-0.22 0.198,-0.081 0.36,-0.15 0.486,-0.207 h 0.054 z"
         style="stroke:#4f4f4f;stroke-width:0.265;stroke-miterlimit:4;stroke-dasharray:none;stroke-opacity:1;fill:url(#linearGradient2788);fill-opacity:1.0"
         id="path2711" />
    </g>
    <path
       style="fill:none;stroke:#ffffff;stroke-width:0.56667443;stroke-linecap:butt;stroke-linejoin:miter;stroke-miterlimit:4;stroke-dasharray:none;stroke-opacity:1;filter:url(#filter2282)"
       d="m -23.81756,117.67009 221.4466,0.56708"
       id="path3680"
       transform="matrix(0.68378662,0,0,1.1385502,24.821097,-7.3466648)" />
  </g>
</svg>
